<svg xmlns="http://www.w3.org/2000/svg" version="1.1" xmlns:xlink="http://www.w3.org/1999/xlink" xmlns:svgjs="http://svgjs.com/svgjs" width="1440" height="560" preserveAspectRatio="none" viewBox="0 0 1440 560">
    <g mask="url(&quot;#SvgjsMask1013&quot;)" fill="none">
        <path d="M973.384,513.912C1007.808,512.243,1041.039,499.799,1059.687,470.816C1080.008,439.234,1087.885,398.239,1068.509,366.069C1049.59,334.658,1010.041,328.442,973.384,327.529C934.452,326.56,891.361,328.765,869.684,361.118C846.051,396.391,847.418,444.819,871.261,479.95C892.853,511.765,934.979,515.774,973.384,513.912" fill="rgba(0, 195, 96, 0.28)" class="triangle-float1"></path>
        <path d="M46.51528514379636 506.4225003950635L118.55568850353924 381.9190332506545-7.166943476513211 379.72453654649627z" fill="rgba(0, 195, 96, 0.28)" class="triangle-float3"></path>
        <path d="M1426.642009660928 462.8509304294034L1520.6764494916447 333.4236275447703 1391.2491466070117 239.38918771405338 1297.2147067762949 368.8164905986865z" fill="rgba(0, 195, 96, 0.28)" class="triangle-float1"></path>
        <path d="M453.849,349.964C490.126,347.376,511.384,313.318,529.379,281.713C547.104,250.582,565.438,215.014,548.726,183.328C531.237,150.17,491.336,138.238,453.849,138.512C416.912,138.782,380.872,153.343,361.346,184.699C340.686,217.876,337.928,259.906,357.017,294.011C376.532,328.876,413.995,352.808,453.849,349.964" fill="rgba(0, 195, 96, 0.28)" class="triangle-float3"></path>
        <path d="M884.151,180.579C924.428,180.54,959.55,154.62,978.708,119.191C996.94,85.475,994.18,45.331,975.331,11.956C956.136,-22.032,923.185,-48.332,884.151,-48.238C845.256,-48.145,812.887,-21.457,793.727,12.392C774.883,45.683,771.162,85.681,789.277,119.374C808.378,154.901,843.815,180.618,884.151,180.579" fill="rgba(0, 195, 96, 0.28)" class="triangle-float2"></path>
        <path d="M814.35 435.97 a103.41 103.41 0 1 0 206.82 0 a103.41 103.41 0 1 0 -206.82 0z" fill="rgba(0, 195, 96, 0.28)" class="triangle-float1"></path>
        <path d="M1370.7198597843787 72.56854414601713L1285.3785410952933-29.334349053731902 1243.7391542257571 79.13996234065134z" fill="rgba(0, 195, 96, 0.28)" class="triangle-float3"></path>
        <path d="M306.318,210.116C334.682,212.254,366.574,211.308,382.783,187.934C400.788,161.971,400.486,125.833,383.029,99.499C366.982,75.291,335.282,70.427,306.318,72.584C281.445,74.437,259.313,87.851,247.139,109.62C235.26,130.861,235.164,156.768,247.513,177.739C259.683,198.405,282.403,208.313,306.318,210.116" fill="rgba(0, 195, 96, 0.28)" class="triangle-float3"></path>
        <path d="M1110.6124918302373 267.4947614838685L1134.1614419340822 378.2838611890228 1244.9505416392365 354.7349110851778 1221.4015915353916 243.9458113800236z" fill="rgba(0, 195, 96, 0.28)" class="triangle-float1"></path>
        <path d="M368.1535783425699 427.4543072960061L346.60293283019047 538.3227672134702 457.4713927476546 559.8734127258497 479.02203826003404 449.00495280838555z" fill="rgba(0, 195, 96, 0.28)" class="triangle-float3"></path>
    </g>
    <defs>
        <mask id="SvgjsMask1013">
            <rect width="1440" height="560" fill="#ffffff"></rect>
        </mask>
        <style>
            @keyframes float1 {
                0%{transform: translate(0, 0)}
                50%{transform: translate(-10px, 0)}
                100%{transform: translate(0, 0)}
            }

            .triangle-float1 {
                animation: float1 5s infinite;
            }

            @keyframes float2 {
                0%{transform: translate(0, 0)}
                50%{transform: translate(-5px, -5px)}
                100%{transform: translate(0, 0)}
            }

            .triangle-float2 {
                animation: float2 4s infinite;
            }

            @keyframes float3 {
                0%{transform: translate(0, 0)}
                50%{transform: translate(0, -10px)}
                100%{transform: translate(0, 0)}
            }

            .triangle-float3 {
                animation: float3 6s infinite;
            }
        </style>
    </defs>
</svg>